<?xml version="1.0" encoding="UTF-8" standalone="no"?>
<!DOCTYPE svg PUBLIC "-//W3C//DTD SVG 1.1//EN" "http://www.w3.org/Graphics/SVG/1.1/DTD/svg11.dtd">
<svg width="100%" height="100%" viewBox="0 0 250 75" version="1.1" xmlns="http://www.w3.org/2000/svg" xmlns:xlink="http://www.w3.org/1999/xlink" xml:space="preserve" style="fill-rule:evenodd;clip-rule:evenodd;stroke-linejoin:round;stroke-miterlimit:1.41421;">
    <g transform="matrix(1.03355,0,0,1.03355,-12.115,35.0174)">
        <path d="M12.973,15.655C12.973,14.212 13.297,13.216 13.944,12.669C14.591,12.121 15.611,11.847 17.005,11.847C19.544,11.847 20.838,12.718 20.888,14.461C20.987,16.9 21.759,18.916 23.203,20.509C24.646,22.102 26.811,22.898 29.699,22.898C35.672,22.898 38.659,19.687 38.659,13.266L38.659,-18.094L29.923,-18.094C29.126,-18.094 28.491,-18.442 28.019,-19.139C27.546,-19.836 27.309,-20.682 27.309,-21.678C27.309,-22.624 27.533,-23.433 27.981,-24.105C28.429,-24.777 29.076,-25.113 29.923,-25.113L43.064,-25.113C44.01,-25.113 44.831,-24.876 45.528,-24.403C46.225,-23.93 46.573,-23.296 46.573,-22.499L46.573,13.266C46.573,18.99 45.055,23.197 42.019,25.885C38.982,28.573 34.975,29.917 29.997,29.917C24.97,29.917 20.875,28.61 17.715,25.997C14.554,23.383 12.973,19.936 12.973,15.655Z" style="fill:rgb(34,34,34);fill-rule:nonzero;"/>
        <path d="M56.205,26.855L56.205,-22.499C56.205,-23.296 56.554,-23.93 57.251,-24.403C57.947,-24.876 58.769,-25.113 59.715,-25.113L86.296,-25.113C87.142,-25.113 87.789,-24.764 88.237,-24.067C88.685,-23.37 88.909,-22.574 88.909,-21.678C88.909,-20.682 88.673,-19.836 88.2,-19.139C87.727,-18.442 87.092,-18.094 86.296,-18.094L64.12,-18.094L64.12,-0.995L75.619,-0.995C76.415,-0.995 77.05,-0.684 77.523,-0.062C77.995,0.56 78.232,1.319 78.232,2.215C78.232,3.012 78.008,3.721 77.56,4.343C77.112,4.966 76.465,5.277 75.619,5.277L64.12,5.277L64.12,22.45L86.296,22.45C87.092,22.45 87.727,22.798 88.2,23.495C88.673,24.192 88.909,25.038 88.909,26.034C88.909,26.93 88.685,27.726 88.237,28.423C87.789,29.12 87.142,29.469 86.296,29.469L59.715,29.469C58.769,29.469 57.947,29.232 57.251,28.759C56.554,28.286 56.205,27.652 56.205,26.855Z" style="fill:rgb(34,34,34);fill-rule:nonzero;"/>
        <path d="M95.256,26.93L95.256,-22.499C95.256,-23.296 95.604,-23.93 96.301,-24.403C96.998,-24.876 97.819,-25.113 98.765,-25.113L112.355,-25.113C116.934,-25.113 120.593,-24.167 123.331,-22.275C126.068,-20.384 127.437,-17.024 127.437,-12.195C127.437,-6.023 125.322,-1.991 121.091,-0.099C123.629,0.896 125.546,2.327 126.84,4.194C128.134,6.061 128.781,8.786 128.781,12.37L128.781,13.789C128.781,19.264 127.437,23.246 124.749,25.735C122.061,28.224 118.452,29.469 113.923,29.469L98.765,29.469C97.72,29.469 96.874,29.22 96.227,28.722C95.579,28.224 95.256,27.627 95.256,26.93ZM103.096,22.45L112.429,22.45C118.054,22.45 120.867,19.364 120.867,13.191L120.867,11.997C120.867,8.811 120.157,6.521 118.739,5.127C117.32,3.734 115.217,3.037 112.429,3.037L103.096,3.037L103.096,22.45ZM103.096,-3.235L111.981,-3.235C117.009,-3.235 119.523,-5.799 119.523,-10.926C119.523,-15.705 116.959,-18.094 111.832,-18.094L103.096,-18.094L103.096,-3.235Z" style="fill:rgb(34,34,34);fill-rule:nonzero;"/>
        <path d="M136.547,26.855L136.547,-22.574C136.547,-23.42 136.932,-24.055 137.704,-24.478C138.475,-24.901 139.409,-25.113 140.504,-25.113C141.599,-25.113 142.532,-24.901 143.304,-24.478C144.075,-24.055 144.461,-23.42 144.461,-22.574L144.461,0.125L162.68,-23.993C163.178,-24.739 163.924,-25.113 164.92,-25.113C165.965,-25.113 166.986,-24.677 167.981,-23.806C168.977,-22.935 169.475,-22.002 169.475,-21.006C169.475,-20.409 169.275,-19.886 168.877,-19.438L154.541,-1.518L171.565,24.391C171.864,24.839 172.013,25.312 172.013,25.81C172.013,26.756 171.528,27.639 170.557,28.461C169.587,29.282 168.529,29.693 167.384,29.693C166.139,29.693 165.194,29.195 164.547,28.199L149.315,5.127L144.461,11.25L144.461,26.855C144.461,27.652 144.075,28.286 143.304,28.759C142.532,29.232 141.599,29.469 140.504,29.469C139.459,29.469 138.538,29.232 137.741,28.759C136.945,28.286 136.547,27.652 136.547,26.855Z" style="fill:rgb(34,34,34);fill-rule:nonzero;"/>
        <path d="M175.373,13.266L175.373,-8.462C175.373,-14.186 176.891,-18.393 179.928,-21.081C182.964,-23.769 187.021,-25.113 192.099,-25.113C197.176,-25.113 201.245,-23.769 204.307,-21.081C207.368,-18.393 208.899,-14.186 208.899,-8.462L208.899,13.266C208.899,18.99 207.368,23.197 204.307,25.885C201.245,28.573 197.176,29.917 192.099,29.917C187.021,29.917 182.964,28.573 179.928,25.885C176.891,23.197 175.373,18.99 175.373,13.266ZM183.288,13.266C183.288,19.687 186.225,22.898 192.099,22.898C194.936,22.898 197.126,22.102 198.669,20.509C200.212,18.916 200.984,16.502 200.984,13.266L200.984,-8.462C200.984,-11.698 200.212,-14.112 198.669,-15.705C197.126,-17.298 194.936,-18.094 192.099,-18.094C186.225,-18.094 183.288,-14.883 183.288,-8.462L183.288,13.266Z" style="fill:rgb(34,34,34);fill-rule:nonzero;"/>
        <path d="M218.157,26.855L218.157,-22.574C218.157,-23.271 218.406,-23.868 218.904,-24.366C219.402,-24.864 220.024,-25.113 220.771,-25.113L234.957,-25.113C246.406,-25.113 252.131,-20.035 252.131,-9.881C252.131,-5.667 251.185,-2.359 249.293,0.045C247.402,2.449 244.838,4.048 241.603,4.841L252.056,24.525C252.255,24.875 252.355,25.249 252.355,25.648C252.355,26.646 251.844,27.57 250.824,28.419C249.803,29.268 248.721,29.693 247.576,29.693C246.282,29.693 245.236,28.919 244.44,27.371L233.539,5.949L225.997,5.949L225.997,26.847C225.997,27.646 225.611,28.283 224.84,28.757C224.068,29.231 223.135,29.469 222.04,29.469C220.995,29.469 220.086,29.232 219.315,28.759C218.543,28.286 218.157,27.652 218.157,26.855ZM225.997,-0.323L234.957,-0.323C241.13,-0.323 244.216,-3.285 244.216,-9.209C244.216,-15.132 241.13,-18.094 234.957,-18.094L225.997,-18.094L225.997,-0.323Z" style="fill:rgb(34,34,34);fill-rule:nonzero;"/>
    </g>
</svg>
